<svg aria-hidden="true" style="position: absolute; width: 0; height: 0; overflow: hidden;" version="1.1" xmlns="http://www.w3.org/2000/svg" xmlns:xlink="http://www.w3.org/1999/xlink">
<defs>

<symbol id="icon-header-mail" viewBox="0 0 43 32">
<path d="M38.667 0h-34.667c-2.206 0-4 1.794-4 4v24c0 2.206 1.794 4 4 4h34.667c2.206 0 4-1.794 4-4v-24c0-2.206-1.794-4-4-4zM38.667 2.667c0.181 0 0.353 0.038 0.511 0.103l-17.844 15.466-17.844-15.466c0.158-0.066 0.33-0.103 0.511-0.103h34.667zM38.667 29.333h-34.667c-0.736 0-1.333-0.598-1.333-1.333v-22.413l17.793 15.421c0.251 0.217 0.563 0.326 0.874 0.326s0.622-0.108 0.874-0.326l17.793-15.421v22.413c0 0.736-0.598 1.333-1.333 1.333z"></path>
</symbol>

<symbol id="icon-linkedin" viewBox="0 0 32 32">
<path d="M31.992 32v-0.001h0.008v-11.736c0-5.741-1.236-10.164-7.948-10.164-3.227 0-5.392 1.771-6.276 3.449h-0.093v-2.913h-6.364v21.364h6.627v-10.579c0-2.785 0.528-5.479 3.977-5.479 3.399 0 3.449 3.179 3.449 5.657v10.401h6.62z"></path>
<path d="M0.528 10.636h6.635v21.364h-6.635v-21.364z"></path>
<path d="M3.843 0c-2.121 0-3.843 1.721-3.843 3.843s1.721 3.879 3.843 3.879c2.121 0 3.843-1.757 3.843-3.879-0.001-2.121-1.723-3.843-3.843-3.843v0z"></path>
</symbol>
<symbol id="icon-Logo-work-a" viewBox="0 0 57 32">
<path d="M20.267 3.733l3.738 3.538-6.938-0.004v17.166h18.133v-6.564l3.733 3.534v-17.671h-18.667zM35.036 17.455l-10.597-10.032h10.597v10.032zM31.746 21.923h-11.81v-11.545h0.835v10.764h10.975v0.782zM22.725 26.72l-0.436 0.898-0.436-0.898h-0.366l0.637 1.198v0.698h0.331v-0.698l0.635-1.198h-0.365zM23.273 28.615l0.154-0.441h0.734l0.155 0.441h0.344l-0.717-1.896h-0.296l-0.716 1.896h0.342zM23.794 27.122l0.275 0.786h-0.549l0.275-0.786zM25.531 27.863c-0.048 0.073-0.072 0.153-0.072 0.241 0 0.16 0.056 0.29 0.168 0.389s0.263 0.148 0.451 0.148 0.349-0.051 0.484-0.152l0.107 0.126h0.367l-0.279-0.329c0.109-0.149 0.164-0.341 0.164-0.574h-0.275c0 0.128-0.026 0.243-0.079 0.348l-0.366-0.432 0.129-0.094c0.091-0.066 0.157-0.132 0.197-0.198s0.060-0.14 0.060-0.219c0-0.12-0.044-0.22-0.133-0.301s-0.201-0.122-0.339-0.122c-0.153 0-0.274 0.043-0.365 0.13s-0.135 0.203-0.135 0.352c0 0.061 0.014 0.124 0.043 0.189s0.081 0.144 0.155 0.237c-0.141 0.101-0.235 0.188-0.283 0.262zM26.386 28.282c-0.093 0.071-0.193 0.107-0.299 0.107-0.095 0-0.17-0.027-0.227-0.082s-0.085-0.126-0.085-0.214c0-0.102 0.052-0.192 0.156-0.271l0.040-0.029 0.414 0.488zM26.046 27.442c-0.089-0.11-0.134-0.202-0.134-0.275 0-0.063 0.018-0.116 0.055-0.158s0.085-0.063 0.147-0.063c0.057 0 0.105 0.018 0.142 0.053s0.056 0.077 0.056 0.126c0 0.075-0.027 0.136-0.081 0.184l-0.040 0.033-0.145 0.099zM29.132 28.472c0.13-0.114 0.205-0.272 0.224-0.474h-0.328c-0.017 0.135-0.059 0.232-0.124 0.29s-0.162 0.087-0.292 0.087c-0.142 0-0.249-0.054-0.323-0.161s-0.109-0.264-0.109-0.469v-0.168c0.002-0.202 0.041-0.355 0.117-0.46s0.188-0.158 0.331-0.158c0.123 0 0.217 0.030 0.28 0.091s0.104 0.158 0.12 0.294h0.328c-0.021-0.207-0.095-0.368-0.223-0.482s-0.296-0.171-0.505-0.171c-0.155 0-0.293 0.037-0.411 0.111s-0.209 0.179-0.272 0.315c-0.063 0.136-0.095 0.294-0.095 0.473v0.177c0.003 0.174 0.035 0.328 0.098 0.46s0.151 0.234 0.266 0.306c0.115 0.071 0.249 0.107 0.4 0.107 0.216 0 0.389-0.056 0.52-0.169zM31.068 28.206c0.064-0.141 0.096-0.304 0.096-0.49v-0.105c-0.001-0.185-0.034-0.347-0.099-0.486s-0.158-0.247-0.277-0.32c-0.119-0.075-0.256-0.112-0.41-0.112s-0.292 0.038-0.411 0.113c-0.119 0.075-0.211 0.183-0.277 0.324s-0.098 0.305-0.098 0.49v0.107c0.001 0.181 0.034 0.342 0.099 0.48s0.159 0.246 0.279 0.322c0.121 0.075 0.258 0.112 0.411 0.112 0.155 0 0.293-0.037 0.411-0.112s0.212-0.183 0.276-0.323zM30.716 27.135c0.080 0.112 0.12 0.273 0.12 0.483v0.099c0 0.214-0.040 0.376-0.119 0.487s-0.19 0.167-0.336 0.167c-0.144 0-0.257-0.057-0.339-0.171s-0.121-0.275-0.121-0.483v-0.109c0.002-0.204 0.043-0.362 0.122-0.473s0.192-0.168 0.335-0.168c0.146 0 0.258 0.056 0.337 0.168z"></path>
</symbol>
<symbol id="menu_burger-open" viewBox="0 0 32 32">
<path d="M6.4 11.733v-2.133h19.2v2.133h-19.2zM6.4 17.067h19.2v-2.133h-19.2v2.133zM6.4 22.4h19.2v-2.133h-19.2v2.133z"></path>
</symbol>
<symbol id="icon-close" viewBox="0 0 32 32">
<path d="M31.439 3.166l-3.166-3.166-12.553 12.553-12.553-12.553-3.166 3.166 12.553 12.553-12.553 12.553 3.166 3.166 12.553-12.553 12.553 12.553 3.166-3.166-12.553-12.553 12.553-12.553z"></path>
</symbol>
<symbol id="icon-github" viewBox="0 0 32 32">
<path d="M16 2.667c-0.015-0-0.033-0-0.050-0-7.364 0-13.333 5.97-13.333 13.333 0 5.875 3.8 10.863 9.076 12.639l0.094 0.027c0.667 0.107 0.88-0.307 0.88-0.667v-2.253c-3.693 0.8-4.48-1.747-4.48-1.747-0.259-0.845-0.798-1.539-1.506-1.991l-0.014-0.009c-1.213-0.827 0.093-0.8 0.093-0.8 0.87 0.116 1.603 0.616 2.033 1.321l0.007 0.012c0.501 0.879 1.432 1.461 2.499 1.461 0.507 0 0.983-0.131 1.396-0.362l-0.015 0.007c0.065-0.703 0.374-1.324 0.84-1.787l0-0c-2.853-0.293-6.027-1.44-6.027-6.52-0.001-0.045-0.002-0.097-0.002-0.149 0-1.335 0.507-2.552 1.339-3.468l-0.004 0.004c-0.173-0.474-0.273-1.021-0.273-1.592 0-0.698 0.15-1.361 0.419-1.958l-0.012 0.030s1.12-0.36 3.667 1.333c1-0.28 2.148-0.44 3.333-0.44s2.334 0.161 3.424 0.461l-0.090-0.021c2.547-1.72 3.667-1.333 3.667-1.333 0.257 0.567 0.407 1.23 0.407 1.928 0 0.571-0.1 1.118-0.284 1.625l0.011-0.033c0.828 0.912 1.335 2.129 1.335 3.464 0 0.053-0.001 0.105-0.002 0.157l0-0.008c0 5.093-3.12 6.213-6.093 6.547 0.573 0.576 0.928 1.37 0.928 2.247 0 0.077-0.003 0.154-0.008 0.229l0.001-0.010v3.653c0 0.36 0.213 0.787 0.893 0.667 5.37-1.804 9.17-6.792 9.17-12.667 0-7.358-5.96-13.324-13.316-13.333h-0.001z"></path>
</symbol>
<symbol id="icon-logo-svg" viewBox="0 0 86 32">
<path d="M48.070 1.401c-3.2 0.958-4.158 4.274-1.845 6.377 0.654 0.584 1.448 0.981 2.639 1.331 2.896 0.841 3.223 0.958 3.574 1.331 0.911 0.888 0.070 2.196-1.448 2.219-1.425 0.023-2.032-0.444-2.476-1.915-0.093-0.28-0.49-0.327-2.126-0.28l-2.032 0.093 0.163 0.724c0.234 1.121 0.934 2.406 1.635 2.943 2.126 1.658 7.288 1.542 9.273-0.21l0.794-0.677 0.374 1.238c0.21 0.654 0.771 1.658 1.215 2.172 0.911 1.074 3.34 2.406 4.368 2.406 0.794 0 0.794 0.023 0.070 1.121-0.818 1.238-1.378 3.62-1.191 5.185 0.42 3.877 2.149 5.793 5.723 6.307 3.364 0.467 5.956-0.467 7.451-2.663l0.747-1.121v3.784h10.978v-3.504h-6.774v-10.511h-4.204v3.831l-0.677-1.098c-0.841-1.308-2.055-2.149-3.714-2.569l-1.238-0.304 1.028-0.747c1.238-0.888 2.756-2.803 3.457-4.368 0.701-1.612 0.864-4.345 0.35-5.91-1.448-4.345-6.914-5.956-11.866-3.504-1.752 0.864-4.298 3.34-4.952 4.812-0.234 0.537-0.514 0.981-0.607 0.981s-0.35-0.257-0.561-0.584c-0.49-0.747-2.196-1.588-4.228-2.079-0.888-0.234-1.822-0.444-2.032-0.514-0.467-0.14-1.121-0.724-1.121-1.028 0-0.467 0.794-0.934 1.542-0.934 1.074 0 1.705 0.35 1.985 1.098 0.21 0.561 0.257 0.584 2.055 0.514 1.028-0.047 1.915-0.163 1.985-0.234s0.023-0.514-0.117-0.981c-0.327-1.215-1.565-2.382-2.85-2.709-1.215-0.304-4.391-0.304-5.349-0.023zM70.47 2.966c1.518 0.701 2.966 2.312 3.48 3.854 1.285 3.901-1.378 8.946-5.839 11.072-6.844 3.247-13.197-1.331-11.212-8.105 0.654-2.219 1.588-3.48 3.877-5.279 3.13-2.406 6.68-2.966 9.693-1.542zM69.489 21.162c1.051 0.491 1.542 1.612 1.565 3.48 0.023 2.686-0.677 3.831-2.453 4.018-1.285 0.14-2.359-0.374-2.873-1.378-0.561-1.074-0.561-4.064 0-4.999 0.841-1.425 2.266-1.845 3.761-1.121z"></path>
<path d="M65.962 6.050c-1.612 0.981-2.149 2.406-1.261 3.293 0.561 0.561 1.542 0.607 2.803 0.093 0.724-0.304 1.004-0.327 1.285-0.093 0.701 0.584-0.42 1.635-1.285 1.168-0.374-0.187-0.607-0.164-1.051 0.164-0.747 0.561-0.724 0.888 0.093 1.238 0.981 0.397 2.009 0.093 3.083-0.911 1.074-1.028 1.238-2.149 0.444-3.013-0.584-0.607-1.378-0.654-2.896-0.14-0.724 0.257-1.191 0.304-1.331 0.164-0.374-0.374 0.467-1.051 1.074-0.911 0.35 0.093 0.747-0.047 1.168-0.374 0.607-0.467 0.631-0.514 0.21-0.818-0.584-0.42-1.495-0.374-2.336 0.14z"></path>
<path d="M61.734 9.039c-0.304 0.187-0.537 0.444-0.537 0.537 0 0.117 0.537 0.958 1.168 1.892 0.654 0.934 1.168 1.822 1.168 1.985 0 0.397-0.514 0.537-1.004 0.28-0.327-0.164-0.584-0.093-1.004 0.304-0.724 0.677-0.701 0.794 0.257 1.238 0.701 0.35 0.888 0.35 1.588 0.047 2.196-0.911 2.359-2.242 0.584-4.858-0.677-1.004-1.331-1.799-1.472-1.799-0.117 0-0.467 0.164-0.747 0.374z"></path>
<path d="M0.934 8.269v6.914h4.438v-2.803c0-2.593 0.023-2.803 0.444-2.803 0.747 0 1.378 0.747 2.663 3.153l1.238 2.336 2.382 0.070c1.308 0.023 2.382 0 2.382-0.070 0-0.304-1.985-4.018-2.499-4.718-0.327-0.42-0.771-0.818-1.028-0.888-0.654-0.21-0.537-0.42 0.561-0.934 1.869-0.888 2.616-3.807 1.401-5.442-1.145-1.542-1.261-1.565-6.867-1.635l-5.115-0.070v6.891zM8.736 4.508c0.514 0.374 0.561 1.472 0.070 1.962-0.21 0.21-0.958 0.397-1.892 0.467l-1.542 0.14v-2.873h1.472c0.864 0 1.658 0.14 1.892 0.304z"></path>
<path d="M4.648 17.752c-2.266 0.397-3.48 1.331-3.947 3.060s0.374 3.317 2.266 4.274c0.397 0.187 1.542 0.584 2.569 0.864 2.336 0.631 2.873 0.958 2.873 1.845 0 1.472-2.289 1.939-3.527 0.724-0.374-0.374-0.677-0.911-0.677-1.215 0-0.467-0.070-0.491-1.215-0.35-0.677 0.070-1.635 0.14-2.126 0.14-0.888 0-0.911 0-0.747 0.771 0.257 1.168 1.191 2.639 2.032 3.153 1.028 0.631 3.667 1.074 5.255 0.888 1.728-0.21 3.457-0.981 4.158-1.845l0.561-0.724 1.028 0.958c1.472 1.378 3.831 1.915 6.4 1.495 1.915-0.304 3.153-1.121 4.041-2.639 1.004-1.799 0.958-1.939-0.911-2.499-0.888-0.28-1.705-0.491-1.822-0.491s-0.35 0.374-0.514 0.818c-0.397 1.145-1.285 1.752-2.476 1.752-1.775 0-2.686-1.355-2.686-4.018 0-2.406 0.888-3.667 2.686-3.854 1.004-0.117 1.121-0.093 1.985 0.841l0.934 0.981 1.752-0.374c0.958-0.234 1.752-0.444 1.752-0.514 0-0.327-0.864-1.705-1.495-2.359-0.981-1.051-1.799-1.448-3.527-1.705-2.663-0.374-5.069 0.304-6.61 1.869-0.537 0.561-0.841 0.747-0.911 0.537-0.257-0.724-1.331-1.682-2.242-2.009-1.238-0.444-3.457-0.607-4.858-0.374zM7.428 20.601c0.187 0.163 0.42 0.537 0.537 0.864 0.21 0.537 0.28 0.561 1.728 0.42 1.658-0.163 1.612-0.187 1.378 1.261l-0.14 0.841-0.888-0.42c-0.467-0.234-1.775-0.654-2.896-0.934s-2.196-0.654-2.382-0.864c-1.121-1.098 1.378-2.219 2.663-1.168z"></path>
<path d="M47.766 17.752c-1.962 0.28-3.877 1.565-4.742 3.153-0.21 0.374-0.257 0.093-0.28-1.355v-1.799h-4.204v4.905h-4.905v-4.905h-4.204v14.015h4.204v-5.606h4.905v5.606h4.204v-3.62l0.444 0.701c1.215 1.962 3.13 2.943 5.933 2.99 2.686 0.070 3.971-0.35 5.442-1.799 1.425-1.401 1.962-2.826 1.962-5.279 0-2.966-1.191-5.232-3.293-6.307-0.747-0.397-3.41-0.981-4.064-0.911-0.117 0.023-0.771 0.117-1.401 0.21zM50.943 21.326c0.911 0.607 1.355 1.658 1.355 3.317 0.047 2.616-1.004 4.088-2.873 4.088-1.892 0-2.943-1.425-2.943-3.971 0-1.775 0.467-2.896 1.448-3.504 1.004-0.607 2.032-0.584 3.013 0.070z"></path>
</symbol>
</defs>
</svg>