<svg aria-hidden="true" style="position: absolute; width: 0; height: 0; overflow: hidden;" version="1.1" xmlns="http://www.w3.org/2000/svg" xmlns:xlink="http://www.w3.org/1999/xlink">
<defs>
<symbol id="icon-logo-svg" viewBox="0 0 86 32">
<path d="M48.070 1.401c-3.2 0.958-4.158 4.274-1.845 6.377 0.654 0.584 1.448 0.981 2.639 1.331 2.896 0.841 3.223 0.958 3.574 1.331 0.911 0.888 0.070 2.196-1.448 2.219-1.425 0.023-2.032-0.444-2.476-1.915-0.093-0.28-0.49-0.327-2.126-0.28l-2.032 0.093 0.163 0.724c0.234 1.121 0.934 2.406 1.635 2.943 2.126 1.658 7.288 1.542 9.273-0.21l0.794-0.677 0.374 1.238c0.21 0.654 0.771 1.658 1.215 2.172 0.911 1.074 3.34 2.406 4.368 2.406 0.794 0 0.794 0.023 0.070 1.121-0.818 1.238-1.378 3.62-1.191 5.185 0.42 3.877 2.149 5.793 5.723 6.307 3.364 0.467 5.956-0.467 7.451-2.663l0.747-1.121v3.784h10.978v-3.504h-6.774v-10.511h-4.204v3.831l-0.677-1.098c-0.841-1.308-2.055-2.149-3.714-2.569l-1.238-0.304 1.028-0.747c1.238-0.888 2.756-2.803 3.457-4.368 0.701-1.612 0.864-4.345 0.35-5.91-1.448-4.345-6.914-5.956-11.866-3.504-1.752 0.864-4.298 3.34-4.952 4.812-0.234 0.537-0.514 0.981-0.607 0.981s-0.35-0.257-0.561-0.584c-0.49-0.747-2.196-1.588-4.228-2.079-0.888-0.234-1.822-0.444-2.032-0.514-0.467-0.14-1.121-0.724-1.121-1.028 0-0.467 0.794-0.934 1.542-0.934 1.074 0 1.705 0.35 1.985 1.098 0.21 0.561 0.257 0.584 2.055 0.514 1.028-0.047 1.915-0.163 1.985-0.234s0.023-0.514-0.117-0.981c-0.327-1.215-1.565-2.382-2.85-2.709-1.215-0.304-4.391-0.304-5.349-0.023zM70.47 2.966c1.518 0.701 2.966 2.312 3.48 3.854 1.285 3.901-1.378 8.946-5.839 11.072-6.844 3.247-13.197-1.331-11.212-8.105 0.654-2.219 1.588-3.48 3.877-5.279 3.13-2.406 6.68-2.966 9.693-1.542zM69.489 21.162c1.051 0.491 1.542 1.612 1.565 3.48 0.023 2.686-0.677 3.831-2.453 4.018-1.285 0.14-2.359-0.374-2.873-1.378-0.561-1.074-0.561-4.064 0-4.999 0.841-1.425 2.266-1.845 3.761-1.121z"></path>
<path d="M65.962 6.050c-1.612 0.981-2.149 2.406-1.261 3.293 0.561 0.561 1.542 0.607 2.803 0.093 0.724-0.304 1.004-0.327 1.285-0.093 0.701 0.584-0.42 1.635-1.285 1.168-0.374-0.187-0.607-0.164-1.051 0.164-0.747 0.561-0.724 0.888 0.093 1.238 0.981 0.397 2.009 0.093 3.083-0.911 1.074-1.028 1.238-2.149 0.444-3.013-0.584-0.607-1.378-0.654-2.896-0.14-0.724 0.257-1.191 0.304-1.331 0.164-0.374-0.374 0.467-1.051 1.074-0.911 0.35 0.093 0.747-0.047 1.168-0.374 0.607-0.467 0.631-0.514 0.21-0.818-0.584-0.42-1.495-0.374-2.336 0.14z"></path>
<path d="M61.734 9.039c-0.304 0.187-0.537 0.444-0.537 0.537 0 0.117 0.537 0.958 1.168 1.892 0.654 0.934 1.168 1.822 1.168 1.985 0 0.397-0.514 0.537-1.004 0.28-0.327-0.164-0.584-0.093-1.004 0.304-0.724 0.677-0.701 0.794 0.257 1.238 0.701 0.35 0.888 0.35 1.588 0.047 2.196-0.911 2.359-2.242 0.584-4.858-0.677-1.004-1.331-1.799-1.472-1.799-0.117 0-0.467 0.164-0.747 0.374z"></path>
<path d="M0.934 8.269v6.914h4.438v-2.803c0-2.593 0.023-2.803 0.444-2.803 0.747 0 1.378 0.747 2.663 3.153l1.238 2.336 2.382 0.070c1.308 0.023 2.382 0 2.382-0.070 0-0.304-1.985-4.018-2.499-4.718-0.327-0.42-0.771-0.818-1.028-0.888-0.654-0.21-0.537-0.42 0.561-0.934 1.869-0.888 2.616-3.807 1.401-5.442-1.145-1.542-1.261-1.565-6.867-1.635l-5.115-0.070v6.891zM8.736 4.508c0.514 0.374 0.561 1.472 0.070 1.962-0.21 0.21-0.958 0.397-1.892 0.467l-1.542 0.14v-2.873h1.472c0.864 0 1.658 0.14 1.892 0.304z"></path>
<path d="M4.648 17.752c-2.266 0.397-3.48 1.331-3.947 3.060s0.374 3.317 2.266 4.274c0.397 0.187 1.542 0.584 2.569 0.864 2.336 0.631 2.873 0.958 2.873 1.845 0 1.472-2.289 1.939-3.527 0.724-0.374-0.374-0.677-0.911-0.677-1.215 0-0.467-0.070-0.491-1.215-0.35-0.677 0.070-1.635 0.14-2.126 0.14-0.888 0-0.911 0-0.747 0.771 0.257 1.168 1.191 2.639 2.032 3.153 1.028 0.631 3.667 1.074 5.255 0.888 1.728-0.21 3.457-0.981 4.158-1.845l0.561-0.724 1.028 0.958c1.472 1.378 3.831 1.915 6.4 1.495 1.915-0.304 3.153-1.121 4.041-2.639 1.004-1.799 0.958-1.939-0.911-2.499-0.888-0.28-1.705-0.491-1.822-0.491s-0.35 0.374-0.514 0.818c-0.397 1.145-1.285 1.752-2.476 1.752-1.775 0-2.686-1.355-2.686-4.018 0-2.406 0.888-3.667 2.686-3.854 1.004-0.117 1.121-0.093 1.985 0.841l0.934 0.981 1.752-0.374c0.958-0.234 1.752-0.444 1.752-0.514 0-0.327-0.864-1.705-1.495-2.359-0.981-1.051-1.799-1.448-3.527-1.705-2.663-0.374-5.069 0.304-6.61 1.869-0.537 0.561-0.841 0.747-0.911 0.537-0.257-0.724-1.331-1.682-2.242-2.009-1.238-0.444-3.457-0.607-4.858-0.374zM7.428 20.601c0.187 0.163 0.42 0.537 0.537 0.864 0.21 0.537 0.28 0.561 1.728 0.42 1.658-0.163 1.612-0.187 1.378 1.261l-0.14 0.841-0.888-0.42c-0.467-0.234-1.775-0.654-2.896-0.934s-2.196-0.654-2.382-0.864c-1.121-1.098 1.378-2.219 2.663-1.168z"></path>
<path d="M47.766 17.752c-1.962 0.28-3.877 1.565-4.742 3.153-0.21 0.374-0.257 0.093-0.28-1.355v-1.799h-4.204v4.905h-4.905v-4.905h-4.204v14.015h4.204v-5.606h4.905v5.606h4.204v-3.62l0.444 0.701c1.215 1.962 3.13 2.943 5.933 2.99 2.686 0.070 3.971-0.35 5.442-1.799 1.425-1.401 1.962-2.826 1.962-5.279 0-2.966-1.191-5.232-3.293-6.307-0.747-0.397-3.41-0.981-4.064-0.911-0.117 0.023-0.771 0.117-1.401 0.21zM50.943 21.326c0.911 0.607 1.355 1.658 1.355 3.317 0.047 2.616-1.004 4.088-2.873 4.088-1.892 0-2.943-1.425-2.943-3.971 0-1.775 0.467-2.896 1.448-3.504 1.004-0.607 2.032-0.584 3.013 0.070z"></path>
</symbol>
</defs>
</svg>
